<?xml version="1.0" encoding="iso-8859-1"?>
<!-- Generator: Adobe Illustrator 17.0.0, SVG Export Plug-In . SVG Version: 6.00 Build 0)  -->
<!DOCTYPE svg PUBLIC "-//W3C//DTD SVG 1.1//EN" "http://www.w3.org/Graphics/SVG/1.1/DTD/svg11.dtd">
<svg version="1.1" id="Layer_1" xmlns="http://www.w3.org/2000/svg" xmlns:xlink="http://www.w3.org/1999/xlink" x="0px" y="0px"
	 width="768px" height="768px" viewBox="128 0 768 768" style="enable-background:new 128 0 768 768;" xml:space="preserve">
<style type="text/css">
	.st0{fill:#FFFFFF;}
</style>
<rect x="128" width="768" height="768"/>
<path class="st0" d="M631.49,738.4C631.49,738.4,631.49,738.4,631.49,738.4c-18.8,3.62-24.74-7.93-24.74-17.8
	c0-12.19,0-52.13,0-101.73c0-34.57-12.16-57.17-25.44-68.67c82.55-9.17,169.29-40.52,169.29-182.92c0-40.49-14.39-73.55-38.17-99.5
	c3.83-9.35,16.54-47.07-3.65-98.11c0,0-31.07-9.96-101.85,38.01c-29.6-8.2-61.36-12.34-92.86-12.49
	c-31.5,0.21-63.21,4.29-92.81,12.49c-70.84-47.97-101.97-38.01-101.97-38.01c-20.09,51.05-7.42,88.76-3.56,98.11
	c-23.72,25.95-38.2,59.01-38.2,99.5c0,142.07,86.53,173.87,168.89,183.22c-10.62,9.26-20.22,25.61-23.53,49.57
	c-21.18,9.48-74.82,25.85-107.89-30.8c0,0-19.61-35.6-56.84-38.22c0,0-36.17-0.44-2.53,22.54c0,0,24.32,11.41,41.15,54.28
	c0,0,21.49,66.16,124.61,43.72v69.03c0,9.8-5.97,21.27-24.5,17.83c-147.32-48.99-253.54-187.99-253.54-351.78
	c0-204.73,165.99-370.73,370.73-370.73c204.73,0,370.73,166,370.73,370.73C884.8,550.41,778.72,689.32,631.49,738.4z"/>
</svg>
