<?xml version="1.0" encoding="iso-8859-1"?>
<!-- Generator: Adobe Illustrator 17.0.0, SVG Export Plug-In . SVG Version: 6.00 Build 0)  -->
<!DOCTYPE svg PUBLIC "-//W3C//DTD SVG 1.1//EN" "http://www.w3.org/Graphics/SVG/1.1/DTD/svg11.dtd">
<svg version="1.1" id="Layer_1" xmlns="http://www.w3.org/2000/svg" xmlns:xlink="http://www.w3.org/1999/xlink" x="0px" y="0px"
	 width="768px" height="768px" viewBox="128 0 768 768" style="enable-background:new 128 0 768 768;" xml:space="preserve">
<style type="text/css">
	.st0{fill:#FFFFFF;stroke:#FFFFFF;stroke-width:0.0938;}
</style>
<rect x="128" width="768" height="768"/>
<path class="st0" d="M531.73,220.26c46.07-4.58,95.75-10.25,138.08,13.02c48.6,23.15,72.72,73.8,94.67,119.87
	c38.11,9.77,85.26,16.4,104.92,55.59c34.25,55.95-6.63,138.68-73.32,141.21c-87.79,6.15-176.07,0.36-264.1,2.17
	C531.97,441.54,532.09,330.84,531.73,220.26z M488.77,217.6c11.82,39.43,17.24,80.56,17.73,121.68
	c0.96,70.91,6.87,144.23-18.21,212.12c-9.17-37.38-15.19-75.61-15.19-114.2C473.22,363.88,471.29,289.47,488.77,217.6z
	 M343.58,267.11c21.47,92.47,30.51,192.63,0,284.17C319.22,458.34,327.78,360.63,343.58,267.11z M391.82,254.62
	c22.79,96.72,26.05,199.7,3.62,296.78C365.65,455.53,376.74,352.18,391.82,254.62z M444.15,551.16
	c-28.7-103.94-23.27-217.73-0.36-322.35C462.24,334.52,465.98,445.58,444.15,551.16z M300.18,292.61
	c10.97,37.02,24.1,175.22-5.08,258.55C274.24,471.81,279.96,329.63,300.18,292.61z M200.87,330.99
	c20.98,70.06,20.67,128.76-1.88,198.7C181.87,458.91,185.43,401.9,200.87,330.99z M246.99,320.73
	c22.79,68.98,22.19,143.63,4.46,213.81C226.61,465.8,229.98,390.79,246.99,320.73z M150.15,367.13c17.73,45.58,19.29,95.51,0,140.97
	C137.85,461.8,138.69,413.44,150.15,367.13z"/>
</svg>
